# Blender v2.80 (sub 75) OBJ File: ''
# www.blender.org
mtllib cube.mtl
v 59.399574 -25.749012 -76.842537
v 59.399574 20.033875 -76.842537
v 59.399574 -25.749012 60.506123
v 59.399574 20.033875 60.506123
v -59.122726 -25.749012 -76.842537
v -59.122726 20.033875 -76.842537
v -59.122726 -25.749012 60.506123
v -59.122726 20.033875 60.506123
v 59.357388 20.033875 -76.793648
v 59.357388 20.033875 60.457233
v -59.080540 20.033875 60.457233
v -59.080540 20.033875 -76.793648
vn -1.0000 0.0000 0.0000
vn 0.0000 0.0000 -1.0000
vn 1.0000 0.0000 0.0000
vn 0.0000 0.0000 1.0000
vn 0.0000 1.0000 0.0000
vn 0.0000 -1.0000 0.0000
usemtl Room
s off
f 3//1 2//1 1//1
f 7//2 4//2 3//2
f 5//3 8//3 7//3
f 1//4 6//4 5//4
f 1//5 7//5 3//5
f 4//6 9//6 2//6
f 12//6 10//6 11//6
f 2//6 12//6 6//6
f 8//6 10//6 4//6
f 6//6 11//6 8//6
f 3//1 4//1 2//1
f 7//2 8//2 4//2
f 5//3 6//3 8//3
f 1//4 2//4 6//4
f 1//5 5//5 7//5
f 4//6 10//6 9//6
f 12//6 9//6 10//6
f 2//6 9//6 12//6
f 8//6 11//6 10//6
f 6//6 12//6 11//6
v 0.719364 0.439812 -17.221888
v 0.719364 0.432739 -17.221888
v 0.719364 0.439812 -18.190924
v 0.719364 0.432739 -18.190924
v -0.565012 0.439812 -17.221888
v -0.565012 0.432739 -17.221888
v -0.565012 0.439812 -18.190924
v -0.565012 0.432739 -18.190924
v 0.719364 0.439812 -18.190924
v 0.719364 0.439812 -17.221888
v 0.719364 0.432739 -17.221888
v 0.719364 0.432739 -18.190924
v -0.565012 0.439812 -18.190924
v -0.565012 0.432739 -18.190924
v -0.565012 0.439812 -17.221888
v -0.565012 0.432739 -17.221888
vn -1.0000 0.0000 0.0000
vn 0.0000 0.0000 1.0000
vn 1.0000 0.0000 0.0000
vn 0.0000 0.0000 -1.0000
vn 0.0000 -1.0000 0.0000
vn 0.0000 1.0000 0.0000
usemtl AudioSource
s off
f 15//7 14//7 13//7
f 19//8 16//8 15//8
f 17//9 20//9 19//9
f 13//10 18//10 17//10
f 13//11 19//11 15//11
f 18//12 16//12 20//12
f 23//9 21//9 22//9
f 24//10 25//10 21//10
f 26//7 27//7 25//7
f 28//8 22//8 27//8
f 25//12 22//12 21//12
f 24//11 28//11 26//11
f 15//7 16//7 14//7
f 19//8 20//8 16//8
f 17//9 18//9 20//9
f 13//10 14//10 18//10
f 13//11 17//11 19//11
f 18//12 14//12 16//12
f 23//9 24//9 21//9
f 24//10 26//10 25//10
f 26//7 28//7 27//7
f 28//8 23//8 22//8
f 25//12 27//12 22//12
f 24//11 23//11 28//11
v 0.719364 0.938048 -17.353960
v 0.719364 0.931943 -17.350386
v 0.719364 0.448487 -18.190237
v 0.719364 0.442382 -18.186663
v -0.565012 0.938048 -17.353960
v -0.565012 0.931943 -17.350386
v -0.565012 0.448487 -18.190237
v -0.565012 0.442382 -18.186663
v 0.719364 0.448487 -18.190237
v 0.719364 0.938048 -17.353960
v 0.719364 0.931943 -17.350386
v 0.719364 0.442382 -18.186663
v -0.565012 0.448487 -18.190237
v -0.565012 0.442382 -18.186663
v -0.565012 0.938048 -17.353960
v -0.565012 0.931943 -17.350386
vn -1.0000 0.0000 0.0000
vn 0.0000 0.5053 0.8630
vn 1.0000 -0.0000 0.0000
vn 0.0000 -0.5053 -0.8630
vn 0.0000 -0.8630 0.5052
vn 0.0000 0.8630 -0.5052
usemtl Rid
s off
f 31//13 30//13 29//13
f 35//14 32//14 31//14
f 33//15 36//15 35//15
f 29//16 34//16 33//16
f 29//17 35//17 31//17
f 34//18 32//18 36//18
f 39//15 37//15 38//15
f 40//16 41//16 37//16
f 42//13 43//13 41//13
f 44//14 38//14 43//14
f 41//18 38//18 37//18
f 40//17 44//17 42//17
f 31//13 32//13 30//13
f 35//14 36//14 32//14
f 33//15 34//15 36//15
f 29//16 30//16 34//16
f 29//17 33//17 35//17
f 34//18 30//18 32//18
f 39//15 40//15 37//15
f 40//16 42//16 41//16
f 42//13 44//13 43//13
f 44//14 39//14 38//14
f 41//18 43//18 38//18
f 40//17 39//17 44//17
