# Blender v2.80 (sub 75) OBJ File: ''
# www.blender.org
mtllib cube.mtl
v 4.603259 -0.800817 -4.448064
v 4.603259 1.199183 -4.448064
v 4.603259 -0.800817 1.551936
v 4.603259 1.199183 1.551936
v -1.396741 -0.800817 -4.448064
v -1.396741 1.199183 -4.448064
v -1.396741 -0.800817 1.551936
v -1.396741 1.199183 1.551936
v 4.601124 1.199183 -4.445928
v 4.601124 1.199183 1.549801
v -1.394605 1.199183 1.549801
v -1.394605 1.199183 -4.445928
vn -1.0000 0.0000 0.0000
vn 0.0000 0.0000 -1.0000
vn 1.0000 0.0000 0.0000
vn 0.0000 0.0000 1.0000
vn 0.0000 1.0000 0.0000
vn 0.0000 -1.0000 0.0000
vn 0.0000 -1.0000 -0.0001
vn 0.0000 -1.0000 0.0001
usemtl Material2
s off
f 3//1 2//1 1//1
f 7//2 4//2 3//2
f 5//3 8//3 7//3
f 1//4 6//4 5//4
f 1//5 7//5 3//5
f 4//6 9//6 2//6
f 12//6 10//6 11//6
f 2//6 12//6 6//6
f 8//7 10//7 4//7
f 6//6 11//6 8//6
f 3//1 4//1 2//1
f 7//2 8//2 4//2
f 5//3 6//3 8//3
f 1//4 2//4 6//4
f 1//5 5//5 7//5
f 4//6 10//6 9//6
f 12//6 9//6 10//6
f 2//6 9//6 12//6
f 8//8 11//8 10//8
f 6//6 12//6 11//6
v 2.300000 -0.300000 -4.300000
v 2.300000 0.300000 -4.300000
v 2.300000 -0.300000 -3.700000
v 2.300000 0.300000 -3.700000
v 1.700000 -0.300000 -4.300000
v 1.700000 0.300000 -4.300000
v 1.700000 -0.300000 -3.700000
v 1.700000 0.300000 -3.700000
vn 1.0000 0.0000 0.0000
vn 0.0000 0.0000 1.0000
vn -1.0000 0.0000 0.0000
vn 0.0000 0.0000 -1.0000
vn 0.0000 -1.0000 0.0000
vn 0.0000 1.0000 0.0000
usemtl a
s off
f 14//9 15//9 13//9
f 16//10 19//10 15//10
f 20//11 17//11 19//11
f 18//12 13//12 17//12
f 19//13 13//13 15//13
f 16//14 18//14 20//14
f 14//9 16//9 15//9
f 16//10 20//10 19//10
f 20//11 18//11 17//11
f 18//12 14//12 13//12
f 19//13 17//13 13//13
f 16//14 14//14 18//14
